<?xml version="1.0" standalone="no"?>
<!DOCTYPE svg PUBLIC "-//W3C//DTD SVG 20010904//EN"
 "http://www.w3.org/TR/2001/REC-SVG-20010904/DTD/svg10.dtd">
<svg version="1.0" xmlns="http://www.w3.org/2000/svg"
 width="1000.000000pt" height="1000.000000pt" viewBox="0 0 1000.000000 1000.000000"
 preserveAspectRatio="xMidYMid meet">
<metadata>
Created by potrace 1.14, written by Peter Selinger 2001-2017
</metadata>
<g transform="translate(0.000000,1000.000000) scale(0.100000,-0.100000)"
fill="#000000" stroke="none">
<path d="M6240 8962 c-58 -10 -404 -206 -490 -279 -82 -69 -245 -188 -304
-222 -41 -23 -116 -57 -168 -76 l-94 -33 -29 46 c-60 95 -214 227 -355 304
-111 60 -300 131 -440 164 -61 14 -214 43 -255 49 -27 3 -59 8 -70 10 -11 2
-51 7 -90 11 -38 3 -86 8 -105 10 -51 5 -411 5 -436 0 -11 -2 -47 -7 -80 -10
-32 -3 -70 -8 -84 -11 -14 -2 -47 -7 -75 -10 -64 -8 -107 -14 -175 -25 -30 -5
-75 -12 -100 -15 -150 -21 -485 -97 -631 -144 -242 -78 -343 -135 -482 -274
-153 -153 -306 -358 -464 -622 -124 -206 -123 -206 -138 -318 -13 -107 -62
-192 -171 -299 -38 -38 -89 -89 -114 -115 -25 -25 -89 -79 -143 -119 -105 -78
-129 -104 -213 -231 -158 -240 -335 -676 -400 -987 -25 -120 -44 -218 -48
-251 -4 -22 -9 -53 -11 -70 -3 -16 -7 -43 -10 -60 -2 -16 -7 -61 -11 -100 -4
-38 -8 -73 -10 -76 -9 -16 -19 -281 -19 -519 0 -240 7 -416 21 -525 9 -74 34
-250 39 -275 25 -128 70 -296 95 -355 4 -11 18 -47 31 -80 64 -166 164 -312
280 -405 l47 -37 -61 -29 c-56 -26 -167 -123 -219 -191 -69 -90 -146 -237
-194 -371 l-34 -93 2 -637 3 -637 4000 -8 c2538 -5 4006 -11 4017 -17 23 -13
51 -13 43 0 -4 7 307 10 924 10 l931 0 1 23 c0 12 1 232 1 488 l0 467 -47 43
c-162 149 -437 310 -784 458 -131 57 -417 163 -473 176 -44 11 -12 37 61 50
41 7 123 54 184 105 69 57 126 134 176 235 40 81 95 225 85 225 -2 0 0 8 5 18
10 19 15 43 38 187 l16 101 81 11 c101 14 175 39 248 86 61 40 66 48 72 124 4
37 0 58 -15 82 -13 21 -15 31 -6 32 6 0 21 2 32 3 11 2 54 6 95 10 216 21 271
76 257 259 -10 124 -35 236 -62 283 -38 64 -113 133 -160 145 -38 11 -95 8
-141 -6 -19 -6 -22 -2 -27 44 -3 27 -17 83 -31 123 l-26 73 34 35 c73 78 90
99 151 191 152 226 223 458 223 724 -1 142 -20 266 -59 384 -28 85 -31 104
-30 212 1 65 4 128 7 141 20 91 32 208 30 294 -1 114 -15 144 -66 144 -69 0
-248 193 -383 412 -89 143 -196 240 -342 308 -144 67 -280 94 -467 92 -76 0
-108 3 -109 11 -3 45 -58 210 -120 356 -38 91 -53 113 -114 175 -101 102 -131
127 -247 205 -144 97 -318 183 -483 239 -190 64 -378 106 -590 132 -49 6 -106
13 -125 16 -43 7 -565 12 -600 6z m3578 -3126 c0 -61 -3 -131 -8 -156 -4 -25
-11 -61 -14 -80 -6 -44 -41 -156 -63 -207 -9 -21 -17 -40 -18 -43 0 -3 -6 -14
-13 -25 -13 -19 -13 -19 -7 2 3 12 8 32 11 45 2 13 7 34 10 48 3 14 7 34 9 45
2 11 6 31 10 45 3 14 8 40 11 59 3 18 8 43 10 55 13 64 42 279 43 326 1 18 4
21 10 11 5 -7 9 -63 9 -125z"/>
</g>
</svg>
